<?xml version="1.0" encoding="UTF-8"?>
<svg version="1.1" xmlns="http://www.w3.org/2000/svg" width="154" height="155">
<path d="M0 0 C50.82 0 101.64 0 154 0 C154 51.15 154 102.3 154 155 C103.18 155 52.36 155 0 155 C0 103.85 0 52.7 0 0 Z " fill="#EDEEEE" transform="translate(0,0)"/>
<path d="M0 0 C50.82 0 101.64 0 154 0 C154 51.15 154 102.3 154 155 C103.18 155 52.36 155 0 155 C0 103.85 0 52.7 0 0 Z M19.44140625 28.87890625 C5.2276989 46.87973967 0.07229523 66.46134468 2 89 C4.38840079 107.60132978 15.20779537 124.75914073 29.18359375 136.8359375 C46.94663363 150.4846533 68.08613193 155.38914195 90.234375 152.73193359 C109.11604778 149.4471544 126.44820866 138.03401003 138 123 C150.01758766 105.10377289 155.119288 84.23692389 151.38671875 62.78125 C146.5370629 42.78443115 134.79563209 24.7421265 117.13916016 13.85253906 C84.72976716 -5.25402254 44.45902225 0.7293139 19.44140625 28.87890625 Z " fill="#FEFEFE" transform="translate(0,0)"/>
<path d="M0 0 C3.98217743 1.74647862 5.85682017 3.07134138 7.57470703 7.15991211 C8.56470703 6.49991211 9.55470703 5.83991211 10.57470703 5.15991211 C15.82882036 4.66424104 19.11481863 5.34824333 23.57470703 8.15991211 C31.40388745 15.26079668 32.76389765 20.32186259 33.31103516 30.69702148 C33.34269775 31.37917725 33.37436035 32.06133301 33.40698242 32.76416016 C33.47671612 34.14475791 33.55925156 35.52477286 33.6550293 36.90380859 C34.54621678 49.82525209 34.54621678 49.82525209 30.74267578 54.82397461 C29.70099479 55.94936893 28.64679557 57.06344605 27.57470703 58.15991211 C26.65574059 59.69696511 25.76820211 61.25458536 24.94970703 62.84741211 C21.95322234 68.35039029 19.35387228 71.74045532 13.88720703 74.90991211 C10.47731248 77.03428606 10.47731248 77.03428606 8.77001953 80.54272461 C8.53789464 82.78659852 8.44966921 84.90923132 8.57470703 87.15991211 C7.77033203 87.40741211 6.96595703 87.65491211 6.13720703 87.90991211 C3.40362603 88.88230069 3.40362603 88.88230069 2.76220703 91.28491211 C2.70033203 91.90366211 2.63845703 92.52241211 2.57470703 93.15991211 C4.22470703 93.48991211 5.87470703 93.81991211 7.57470703 94.15991211 C6.74970703 94.92303711 5.92470703 95.68616211 5.07470703 96.47241211 C1.36483777 100.92635119 2.11568774 105.65908421 2.57470703 111.15991211 C2.65462891 112.12799805 2.73455078 113.09608398 2.81689453 114.09350586 C3.03788204 116.45405424 3.28882203 118.8064659 3.57470703 121.15991211 C0.93470703 121.15991211 -1.70529297 121.15991211 -4.42529297 121.15991211 C-4.4043457 120.51965088 -4.38339844 119.87938965 -4.36181641 119.21972656 C-4.27840013 116.30411636 -4.22655328 113.38875759 -4.17529297 110.47241211 C-4.14177734 109.46500977 -4.10826172 108.45760742 -4.07373047 107.41967773 C-3.9538119 101.36505868 -3.9538119 101.36505868 -6.44091797 95.95288086 C-7.09576172 95.36120117 -7.75060547 94.76952148 -8.42529297 94.15991211 C-5.45529297 93.16991211 -5.45529297 93.16991211 -2.42529297 92.15991211 C-3.00279297 91.83120117 -3.58029297 91.50249023 -4.17529297 91.16381836 C-10.16765622 87.32496065 -10.16765622 87.32496065 -10.95654297 83.75756836 C-10.92814537 81.51060827 -10.78013362 79.37766616 -10.42529297 77.15991211 C-11.00537109 77.05678711 -11.58544922 76.95366211 -12.18310547 76.84741211 C-18.93641994 74.77670941 -23.56635935 68.00146313 -27.29638672 62.37084961 C-28.52381363 59.96696161 -29.019602 57.81788742 -29.42529297 55.15991211 C-30.02341797 55.11866211 -30.62154297 55.07741211 -31.23779297 55.03491211 C-33.42529297 54.15991211 -33.42529297 54.15991211 -35.17529297 51.47241211 C-36.45948949 48.06929133 -36.76011547 45.75925398 -36.42529297 42.15991211 C-35.93029297 41.66491211 -35.93029297 41.66491211 -35.42529297 41.15991211 C-35.07426096 39.12451643 -34.76977329 37.08101722 -34.48779297 35.03491211 C-33.95558578 31.23046228 -33.40573286 27.79143127 -31.98779297 24.22241211 C-31.80216797 23.21178711 -31.61654297 22.20116211 -31.42529297 21.15991211 C-33.59874423 17.9017652 -33.59874423 17.9017652 -36.42529297 15.15991211 C-38.08345125 12.39631497 -38.42529297 11.44387427 -38.42529297 8.15991211 C-37.28833984 8.42674805 -36.15138672 8.69358398 -34.97998047 8.96850586 C-28.65473986 9.7574217 -24.39885071 6.07919451 -19.31201172 2.76342773 C-13.03788781 -1.08042461 -7.14499947 -2.47492885 0 0 Z " fill="#FDDBCB" transform="translate(78.42529296875,26.840087890625)"/>
<path d="M0 0 C3.98217743 1.74647862 5.85682017 3.07134138 7.57470703 7.15991211 C8.56470703 6.49991211 9.55470703 5.83991211 10.57470703 5.15991211 C15.82882036 4.66424104 19.11481863 5.34824333 23.57470703 8.15991211 C28.63984261 12.75387228 32.36293562 16.57201565 32.77783203 23.60131836 C32.92455205 31.42702099 32.96818543 38.90596288 29.57470703 46.15991211 C28.58470703 47.14991211 28.58470703 47.14991211 27.57470703 48.15991211 C27.36845703 47.10803711 27.16220703 46.05616211 26.94970703 44.97241211 C25.66399389 40.67519637 23.37177856 38.42829251 19.57470703 36.15991211 C8.9451671 30.73033771 -0.31677107 26.75293597 -12.42529297 28.15991211 C-18.15265592 30.1025717 -25.61281329 33.53495276 -28.42529297 39.15991211 C-28.65151378 40.86355033 -28.8341777 42.57319911 -28.98779297 44.28491211 C-29.07158203 45.19499023 -29.15537109 46.10506836 -29.24169922 47.04272461 C-29.30228516 47.74139648 -29.36287109 48.44006836 -29.42529297 49.15991211 C-32.53581131 46.04939377 -33.34036318 43.21653856 -33.69091797 38.85522461 C-33.64368061 28.06148862 -33.64368061 28.06148862 -32.11279297 24.15991211 C-31.88591797 23.16991211 -31.65904297 22.17991211 -31.42529297 21.15991211 C-33.59874423 17.9017652 -33.59874423 17.9017652 -36.42529297 15.15991211 C-38.08345125 12.39631497 -38.42529297 11.44387427 -38.42529297 8.15991211 C-37.28833984 8.42674805 -36.15138672 8.69358398 -34.97998047 8.96850586 C-28.65473986 9.7574217 -24.39885071 6.07919451 -19.31201172 2.76342773 C-13.03788781 -1.08042461 -7.14499947 -2.47492885 0 0 Z " fill="#352216" transform="translate(78.42529296875,26.840087890625)"/>
<path d="M0 0 C1.17487815 4.24777375 2.338477 8.49855674 3.5 12.75 C3.83386719 13.9565625 4.16773437 15.163125 4.51171875 16.40625 C4.82753906 17.56640625 5.14335938 18.7265625 5.46875 19.921875 C5.90864258 21.52434082 5.90864258 21.52434082 6.35742188 23.15917969 C7 26 7 26 7 30 C4.65794722 29.70101454 2.3322677 29.36414589 0 29 C-0.65226562 28.91234375 -1.30453125 28.8246875 -1.9765625 28.734375 C-9.63796316 27.41443331 -16.20885519 23.61292768 -23 20 C-23 13.91199814 -19.71508094 10.61121689 -15.6875 6.375 C-10.90745006 1.76895617 -6.86775209 -1.78139645 0 0 Z " fill="#404040" transform="translate(63,118)"/>
<path d="M0 0 C7.63856574 0.69343008 13.02637274 4.90680381 18.234375 10.32421875 C22.99828997 16.08855587 22.99828997 16.08855587 23.00390625 19.08203125 C19.8713105 25.06687371 9.08618519 27.43807956 3.0625 29.375 C-0.76975275 30.54319601 -3.99066548 31.1919755 -8 31 C-6.52876773 24.32128978 -5.00619543 17.65648211 -3.4375 11 C-3.21642578 10.04738281 -2.99535156 9.09476563 -2.76757812 8.11328125 C-2.55423828 7.20964844 -2.34089844 6.30601563 -2.12109375 5.375 C-1.9295874 4.55773437 -1.73808105 3.74046875 -1.54077148 2.8984375 C-1 1 -1 1 0 0 Z " fill="#404040" transform="translate(93,117)"/>
<path d="M0 0 C2.89696854 0.36982577 5.37621929 0.68810965 8 2 C7.67 6.29 7.34 10.58 7 15 C4.69 15 2.38 15 0 15 C0.515625 15.556875 1.03125 16.11375 1.5625 16.6875 C3 19 3 19 2.875 21.375 C1.80373413 24.58879762 0.92208808 27.18093749 -1 30 C-4.6875 30.875 -4.6875 30.875 -8 31 C-6.52876773 24.32128978 -5.00619543 17.65648211 -3.4375 11 C-3.21642578 10.04738281 -2.99535156 9.09476563 -2.76757812 8.11328125 C-2.55423828 7.20964844 -2.34089844 6.30601563 -2.12109375 5.375 C-1.9295874 4.55773437 -1.73808105 3.74046875 -1.54077148 2.8984375 C-1 1 -1 1 0 0 Z " fill="#393939" transform="translate(93,117)"/>
<path d="M0 0 C1.17487815 4.24777375 2.338477 8.49855674 3.5 12.75 C3.83386719 13.9565625 4.16773437 15.163125 4.51171875 16.40625 C4.98544922 18.14648438 4.98544922 18.14648438 5.46875 19.921875 C5.76201172 20.99018555 6.05527344 22.05849609 6.35742188 23.15917969 C7 26 7 26 7 30 C0.25 29.25 0.25 29.25 -2 27 C-2 26.01 -2 25.02 -2 24 C-2.20625 23.030625 -2.4125 22.06125 -2.625 21.0625 C-3.02213128 17.81926117 -2.75012392 16.67666012 -1 14 C-2.98 14 -4.96 14 -7 14 C-7 9.38 -7 4.76 -7 0 C-4.3333581 -1.33332095 -2.83319697 -0.67102033 0 0 Z " fill="#393939" transform="translate(63,118)"/>
<path d="M0 0 C1.76150391 -0.02126953 1.76150391 -0.02126953 3.55859375 -0.04296875 C6.5625 0.1875 6.5625 0.1875 8.5625 2.1875 C7.7375 2.785625 6.9125 3.38375 6.0625 4 C3.40497 6.65753 3.19799478 8.67034221 3.1875 12.375 C3.27709461 14.31445973 3.40296849 16.25253722 3.5625 18.1875 C3.64242187 19.156875 3.72234375 20.12625 3.8046875 21.125 C4.02586287 23.48420396 4.27677393 25.83536219 4.5625 28.1875 C1.9225 28.1875 -0.7175 28.1875 -3.4375 28.1875 C-3.41655273 27.54723877 -3.39560547 26.90697754 -3.37402344 26.24731445 C-3.29060716 23.33170425 -3.23876031 20.41634548 -3.1875 17.5 C-3.15398437 16.49259766 -3.12046875 15.48519531 -3.0859375 14.44726562 C-2.96601893 8.39264657 -2.96601893 8.39264657 -5.453125 2.98046875 C-6.10796875 2.38878906 -6.7628125 1.79710938 -7.4375 1.1875 C-5.56506019 -0.68493981 -2.50090482 0.01369608 0 0 Z " fill="#FE3A3A" transform="translate(77.4375,119.8125)"/>
<path d="M0 0 C2.25 1.375 2.25 1.375 3.25 4.375 C2.76171875 7.4765625 2.76171875 7.4765625 1.9375 11 C1.54111328 12.75183594 1.54111328 12.75183594 1.13671875 14.5390625 C0.84410156 15.47492188 0.55148438 16.41078125 0.25 17.375 C-0.41 17.705 -1.07 18.035 -1.75 18.375 C-3.4 16.395 -5.05 14.415 -6.75 12.375 C-6.09 11.055 -5.43 9.735 -4.75 8.375 C-6.07 7.715 -7.39 7.055 -8.75 6.375 C-8.43611748 3.34080233 -7.89199636 2.4933303 -5.5 0.5 C-2.75 -0.625 -2.75 -0.625 0 0 Z " fill="#FCF9F9" transform="translate(89.75,113.625)"/>
<path d="M0 0 C2.78639226 1.5630981 5.13945474 3.36060407 7.5625 5.4375 C5.5825 6.0975 3.6025 6.7575 1.5625 7.4375 C1.830625 7.994375 2.09875 8.55125 2.375 9.125 C2.5625 11.4375 2.5625 11.4375 0.25 14.1875 C-2.4375 16.4375 -2.4375 16.4375 -4.4375 16.4375 C-7.031831 5.80537565 -7.031831 5.80537565 -6.4375 2.4375 C-4.22948674 -0.09762634 -3.32936362 -0.76831468 0 0 Z " fill="#FCF8F7" transform="translate(69.4375,113.5625)"/>
<path d="M0 0 C0.66 0.165 1.32 0.33 2 0.5 C7.80921953 1.46820325 13.25191935 1.14961613 19 0 C19 0.99 19 1.98 19 3 C15.48262679 4.17245774 12.6424868 4.13266285 8.9375 4.125 C7.68839844 4.12757812 6.43929687 4.13015625 5.15234375 4.1328125 C2 4 2 4 0 3 C0 2.01 0 1.02 0 0 Z " fill="#F4C6A9" transform="translate(68,105)"/>
</svg>
